<mxfile host="Electron" modified="2024-06-24T03:06:17.018Z" agent="Mozilla/5.0 (X11; Linux x86_64) AppleWebKit/537.36 (KHTML, like Gecko) draw.io/24.6.1 Chrome/124.0.6367.207 Electron/30.0.6 Safari/537.36" etag="0QNz8KAvllDKxoDZ-hMo" version="24.6.1" type="device">
  <diagram id="C5RBs43oDa-KdzZeNtuy" name="Page-1">
    <mxGraphModel dx="3279" dy="1810" grid="1" gridSize="10" guides="1" tooltips="1" connect="1" arrows="1" fold="1" page="1" pageScale="1" pageWidth="850" pageHeight="1100" background="none" math="0" shadow="0">
      <root>
        <mxCell id="WIyWlLk6GJQsqaUBKTNV-0" />
        <mxCell id="WIyWlLk6GJQsqaUBKTNV-1" parent="WIyWlLk6GJQsqaUBKTNV-0" />
        <mxCell id="_J6Cwn1X5KhBx10pQVit-129" value="Launch_robot.launch.py" style="rounded=0;whiteSpace=wrap;html=1;verticalAlign=top;" parent="WIyWlLk6GJQsqaUBKTNV-1" vertex="1">
          <mxGeometry x="-823" y="170" width="797" height="370" as="geometry" />
        </mxCell>
        <mxCell id="Kt66wAR78E_RaEtoUN4U-6" value="&lt;h1&gt;ros2_control Lifecycle&lt;/h1&gt;&lt;div&gt;This is the flow of execution for a ros2_control node.&lt;/div&gt;" style="text;html=1;spacing=5;spacingTop=-20;whiteSpace=wrap;overflow=hidden;rounded=0;" parent="WIyWlLk6GJQsqaUBKTNV-1" vertex="1">
          <mxGeometry x="110" y="50" width="650" height="120" as="geometry" />
        </mxCell>
        <mxCell id="Kt66wAR78E_RaEtoUN4U-15" value="&lt;h1&gt;Gazebo Simulation&lt;/h1&gt;&lt;p&gt;Lorem ipsum dolor sit amet, consectetur adipisicing elit, sed do eiusmod tempor incididunt ut labore et dolore magna aliqua.&lt;/p&gt;" style="text;html=1;spacing=5;spacingTop=-20;whiteSpace=wrap;overflow=hidden;rounded=0;" parent="WIyWlLk6GJQsqaUBKTNV-1" vertex="1">
          <mxGeometry x="960" y="50" width="530" height="120" as="geometry" />
        </mxCell>
        <mxCell id="Kt66wAR78E_RaEtoUN4U-16" value="&lt;h1&gt;Launch Configuration&lt;/h1&gt;&lt;p&gt;This is the very first stage from a command line.&lt;/p&gt;" style="text;html=1;spacing=5;spacingTop=-20;whiteSpace=wrap;overflow=hidden;rounded=0;" parent="WIyWlLk6GJQsqaUBKTNV-1" vertex="1">
          <mxGeometry x="-530" y="30" width="190" height="120" as="geometry" />
        </mxCell>
        <mxCell id="Kt66wAR78E_RaEtoUN4U-17" value="Unconfigured" style="rounded=1;whiteSpace=wrap;html=1;" parent="WIyWlLk6GJQsqaUBKTNV-1" vertex="1">
          <mxGeometry x="319" y="230" width="110" height="60" as="geometry" />
        </mxCell>
        <mxCell id="Kt66wAR78E_RaEtoUN4U-18" value="Inactive" style="rounded=1;whiteSpace=wrap;html=1;" parent="WIyWlLk6GJQsqaUBKTNV-1" vertex="1">
          <mxGeometry x="319" y="380" width="120" height="60" as="geometry" />
        </mxCell>
        <mxCell id="Kt66wAR78E_RaEtoUN4U-19" value="Active" style="rounded=1;whiteSpace=wrap;html=1;" parent="WIyWlLk6GJQsqaUBKTNV-1" vertex="1">
          <mxGeometry x="340" y="560" width="120" height="60" as="geometry" />
        </mxCell>
        <mxCell id="Kt66wAR78E_RaEtoUN4U-23" value="on_init()&lt;br&gt;Read parameters etc." style="text;html=1;align=center;verticalAlign=middle;whiteSpace=wrap;rounded=0;" parent="WIyWlLk6GJQsqaUBKTNV-1" vertex="1">
          <mxGeometry x="109" y="160" width="130" height="30" as="geometry" />
        </mxCell>
        <mxCell id="Kt66wAR78E_RaEtoUN4U-24" value="on_shutdown()" style="text;html=1;align=center;verticalAlign=middle;whiteSpace=wrap;rounded=0;" parent="WIyWlLk6GJQsqaUBKTNV-1" vertex="1">
          <mxGeometry x="504" y="200" width="100" height="30" as="geometry" />
        </mxCell>
        <mxCell id="Kt66wAR78E_RaEtoUN4U-28" value="on_deactivate()&lt;br&gt;disengage actuators" style="text;html=1;align=center;verticalAlign=middle;whiteSpace=wrap;rounded=0;" parent="WIyWlLk6GJQsqaUBKTNV-1" vertex="1">
          <mxGeometry x="539" y="435" width="130" height="30" as="geometry" />
        </mxCell>
        <mxCell id="Kt66wAR78E_RaEtoUN4U-30" value="&lt;h1&gt;MicroROS&lt;/h1&gt;&lt;p&gt;MicroROS execuation graph&lt;/p&gt;" style="text;html=1;spacing=5;spacingTop=-20;whiteSpace=wrap;overflow=hidden;rounded=0;" parent="WIyWlLk6GJQsqaUBKTNV-1" vertex="1">
          <mxGeometry x="-645" y="1200" width="465" height="120" as="geometry" />
        </mxCell>
        <mxCell id="0" value="" style="rounded=0;whiteSpace=wrap;html=1;labelBackgroundColor=#572d8b;" parent="WIyWlLk6GJQsqaUBKTNV-1" vertex="1">
          <mxGeometry x="75" y="1770" width="740" height="340" as="geometry" />
        </mxCell>
        <mxCell id="1" value="Launch ros2_control_node" style="rounded=0;whiteSpace=wrap;html=1;" parent="WIyWlLk6GJQsqaUBKTNV-1" vertex="1">
          <mxGeometry x="140" y="1850" width="130" height="60" as="geometry" />
        </mxCell>
        <mxCell id="2" value="Launch robot_state_publisher" style="rounded=0;whiteSpace=wrap;html=1;" parent="WIyWlLk6GJQsqaUBKTNV-1" vertex="1">
          <mxGeometry x="590" y="1890" width="130" height="60" as="geometry" />
        </mxCell>
        <mxCell id="3" value="Launch diff_drive_spawner" style="rounded=0;whiteSpace=wrap;html=1;" parent="WIyWlLk6GJQsqaUBKTNV-1" vertex="1">
          <mxGeometry x="140" y="1940" width="130" height="60" as="geometry" />
        </mxCell>
        <mxCell id="4" value="Launch joint_broad(caster)" style="rounded=0;whiteSpace=wrap;html=1;" parent="WIyWlLk6GJQsqaUBKTNV-1" vertex="1">
          <mxGeometry x="140" y="2030" width="130" height="60" as="geometry" />
        </mxCell>
        <mxCell id="5" value="Launch joint_broadcast_spawner" style="rounded=0;whiteSpace=wrap;html=1;" parent="WIyWlLk6GJQsqaUBKTNV-1" vertex="1">
          <mxGeometry x="330" y="1850" width="130" height="60" as="geometry" />
        </mxCell>
        <mxCell id="6" value="&lt;h1&gt;&lt;b&gt;Controller Manager&lt;/b&gt;&lt;/h1&gt;" style="text;html=1;strokeColor=none;fillColor=none;align=center;verticalAlign=middle;whiteSpace=wrap;rounded=0;" parent="WIyWlLk6GJQsqaUBKTNV-1" vertex="1">
          <mxGeometry x="570" y="2060" width="240" height="30" as="geometry" />
        </mxCell>
        <mxCell id="7" value="" style="group" parent="WIyWlLk6GJQsqaUBKTNV-1" vertex="1" connectable="0">
          <mxGeometry x="70" y="1360" width="660" height="340" as="geometry" />
        </mxCell>
        <mxCell id="8" value="ros2_control" style="rounded=1;whiteSpace=wrap;html=1;verticalAlign=top;" parent="7" vertex="1">
          <mxGeometry width="660" height="340" as="geometry" />
        </mxCell>
        <mxCell id="9" value="Entry Point&lt;br&gt;(temporary detail)" style="whiteSpace=wrap;html=1;aspect=fixed;" parent="7" vertex="1">
          <mxGeometry x="20" y="68.62662914321452" width="62.924878048780485" height="62.924878048780485" as="geometry" />
        </mxCell>
        <mxCell id="10" value="Navigation" style="whiteSpace=wrap;html=1;" parent="7" vertex="1">
          <mxGeometry x="175.44303797468365" y="43.586332218506115" width="100.253164556962" height="44.347826086956516" as="geometry" />
        </mxCell>
        <mxCell id="11" style="edgeStyle=orthogonalEdgeStyle;rounded=0;orthogonalLoop=1;jettySize=auto;html=1;exitX=1;exitY=0.25;exitDx=0;exitDy=0;entryX=0;entryY=0.5;entryDx=0;entryDy=0;" parent="7" source="9" target="10" edge="1">
          <mxGeometry relative="1" as="geometry">
            <mxPoint x="150.37974683544303" y="65.7602452619844" as="targetPoint" />
          </mxGeometry>
        </mxCell>
        <mxCell id="12" value="MoveIt2" style="whiteSpace=wrap;html=1;" parent="7" vertex="1">
          <mxGeometry x="175.44303797468365" y="115.28198439241916" width="100.253164556962" height="44.347826086956516" as="geometry" />
        </mxCell>
        <mxCell id="13" style="edgeStyle=orthogonalEdgeStyle;rounded=0;orthogonalLoop=1;jettySize=auto;html=1;exitX=1;exitY=0.75;exitDx=0;exitDy=0;entryX=0;entryY=0.5;entryDx=0;entryDy=0;" parent="7" source="9" target="12" edge="1">
          <mxGeometry relative="1" as="geometry" />
        </mxCell>
        <mxCell id="14" value="foo_controller" style="whiteSpace=wrap;html=1;" parent="7" vertex="1">
          <mxGeometry x="350.8860759493673" y="220.97763656633222" width="100.253164556962" height="44.347826086956516" as="geometry" />
        </mxCell>
        <mxCell id="15" value="" style="edgeStyle=orthogonalEdgeStyle;rounded=0;orthogonalLoop=1;jettySize=auto;html=1;entryX=0;entryY=0.5;entryDx=0;entryDy=0;exitX=0.5;exitY=1;exitDx=0;exitDy=0;" parent="7" source="9" target="14" edge="1">
          <mxGeometry relative="1" as="geometry" />
        </mxCell>
        <mxCell id="16" value="base_controller" style="whiteSpace=wrap;html=1;" parent="7" vertex="1">
          <mxGeometry x="342.5316455696202" y="43.586332218506115" width="100.253164556962" height="44.347826086956516" as="geometry" />
        </mxCell>
        <mxCell id="17" value="" style="edgeStyle=orthogonalEdgeStyle;rounded=0;orthogonalLoop=1;jettySize=auto;html=1;" parent="7" source="10" target="16" edge="1">
          <mxGeometry relative="1" as="geometry" />
        </mxCell>
        <mxCell id="18" value="arm_controller" style="whiteSpace=wrap;html=1;" parent="7" vertex="1">
          <mxGeometry x="342.5316455696202" y="115.28198439241916" width="100.253164556962" height="44.347826086956516" as="geometry" />
        </mxCell>
        <mxCell id="19" value="" style="edgeStyle=orthogonalEdgeStyle;rounded=0;orthogonalLoop=1;jettySize=auto;html=1;" parent="7" source="12" target="18" edge="1">
          <mxGeometry relative="1" as="geometry" />
        </mxCell>
        <mxCell id="20" value="Hardware Abstraction Layer" style="whiteSpace=wrap;html=1;" parent="7" vertex="1">
          <mxGeometry x="509.62025316455674" y="43.586332218506115" width="100.253164556962" height="221.7391304347826" as="geometry" />
        </mxCell>
        <mxCell id="21" value="" style="edgeStyle=orthogonalEdgeStyle;rounded=0;orthogonalLoop=1;jettySize=auto;html=1;" parent="7" source="16" target="20" edge="1">
          <mxGeometry relative="1" as="geometry" />
        </mxCell>
        <mxCell id="Pk7snzVkNLMH_WmJ1Nt8-135" style="edgeStyle=orthogonalEdgeStyle;rounded=0;orthogonalLoop=1;jettySize=auto;html=1;exitX=1;exitY=0.5;exitDx=0;exitDy=0;" parent="WIyWlLk6GJQsqaUBKTNV-1" source="22" target="Pk7snzVkNLMH_WmJ1Nt8-134" edge="1">
          <mxGeometry relative="1" as="geometry" />
        </mxCell>
        <mxCell id="Pk7snzVkNLMH_WmJ1Nt8-137" value="" style="edgeStyle=orthogonalEdgeStyle;rounded=0;orthogonalLoop=1;jettySize=auto;html=1;" parent="WIyWlLk6GJQsqaUBKTNV-1" source="22" target="Pk7snzVkNLMH_WmJ1Nt8-130" edge="1">
          <mxGeometry relative="1" as="geometry" />
        </mxCell>
        <mxCell id="22" value="Launch robot_state_publisher" style="rounded=0;whiteSpace=wrap;html=1;" parent="WIyWlLk6GJQsqaUBKTNV-1" vertex="1">
          <mxGeometry x="-563.5" y="227.5" width="130" height="55" as="geometry" />
        </mxCell>
        <mxCell id="23" value="Load URDF into /robot_description" style="rounded=0;whiteSpace=wrap;html=1;" parent="WIyWlLk6GJQsqaUBKTNV-1" vertex="1">
          <mxGeometry x="-710" y="970" width="120" height="60" as="geometry" />
        </mxCell>
        <mxCell id="24" value="Initeialize ControllerManager" style="rounded=0;whiteSpace=wrap;html=1;" parent="WIyWlLk6GJQsqaUBKTNV-1" vertex="1">
          <mxGeometry x="-140" y="580" width="120" height="60" as="geometry" />
        </mxCell>
        <mxCell id="25" value="Implement RobotHW in Hardware Abstraction Layer&lt;br&gt;(JointStateInterface)" style="rounded=0;whiteSpace=wrap;html=1;" parent="WIyWlLk6GJQsqaUBKTNV-1" vertex="1">
          <mxGeometry x="-260" y="990" width="180" height="60" as="geometry" />
        </mxCell>
        <mxCell id="27" value="joint_state_broadcaster" style="rounded=0;whiteSpace=wrap;html=1;" parent="WIyWlLk6GJQsqaUBKTNV-1" vertex="1">
          <mxGeometry x="60" y="980" width="140" height="40" as="geometry" />
        </mxCell>
        <mxCell id="28" value="diff_drive_controller" style="whiteSpace=wrap;html=1;" parent="WIyWlLk6GJQsqaUBKTNV-1" vertex="1">
          <mxGeometry x="60" y="910" width="140" height="60" as="geometry" />
        </mxCell>
        <mxCell id="29" value="joint_trajectory_controller" style="whiteSpace=wrap;html=1;" parent="WIyWlLk6GJQsqaUBKTNV-1" vertex="1">
          <mxGeometry x="50" y="770" width="170" height="60" as="geometry" />
        </mxCell>
        <mxCell id="30" value="gripper_controller" style="whiteSpace=wrap;html=1;" parent="WIyWlLk6GJQsqaUBKTNV-1" vertex="1">
          <mxGeometry x="75" y="690" width="120" height="60" as="geometry" />
        </mxCell>
        <mxCell id="31" value="position_controller&lt;br&gt;velocity_controller&lt;br&gt;effort_controller" style="whiteSpace=wrap;html=1;" parent="WIyWlLk6GJQsqaUBKTNV-1" vertex="1">
          <mxGeometry x="75" y="840" width="120" height="60" as="geometry" />
        </mxCell>
        <mxCell id="32" value="Lifecycle" style="rounded=0;whiteSpace=wrap;html=1;verticalAlign=bottom;" parent="WIyWlLk6GJQsqaUBKTNV-1" vertex="1">
          <mxGeometry x="-650" y="1406" width="540" height="300" as="geometry" />
        </mxCell>
        <mxCell id="33" value="" style="rounded=0;whiteSpace=wrap;html=1;" parent="WIyWlLk6GJQsqaUBKTNV-1" vertex="1">
          <mxGeometry x="-610" y="1436" width="120" height="60" as="geometry" />
        </mxCell>
        <mxCell id="34" value="" style="whiteSpace=wrap;html=1;" parent="WIyWlLk6GJQsqaUBKTNV-1" vertex="1">
          <mxGeometry x="-450" y="1436" width="120" height="60" as="geometry" />
        </mxCell>
        <mxCell id="35" value="" style="whiteSpace=wrap;html=1;" parent="WIyWlLk6GJQsqaUBKTNV-1" vertex="1">
          <mxGeometry x="-290" y="1446" width="120" height="60" as="geometry" />
        </mxCell>
        <mxCell id="88" value="&lt;p style=&quot;margin:0px;margin-top:4px;text-align:center;&quot;&gt;&lt;i&gt;&amp;lt;&amp;lt;Interface&amp;gt;&amp;gt;&lt;/i&gt;&lt;br/&gt;&lt;b&gt;Interface&lt;/b&gt;&lt;/p&gt;&lt;hr size=&quot;1&quot;/&gt;&lt;p style=&quot;margin:0px;margin-left:4px;&quot;&gt;+ field1: Type&lt;br/&gt;+ field2: Type&lt;/p&gt;&lt;hr size=&quot;1&quot;/&gt;&lt;p style=&quot;margin:0px;margin-left:4px;&quot;&gt;+ method1(Type): Type&lt;br/&gt;+ method2(Type, Type): Type&lt;/p&gt;" style="verticalAlign=top;align=left;overflow=fill;fontSize=12;fontFamily=Helvetica;html=1;rounded=0;shadow=0;comic=0;labelBackgroundColor=none;strokeWidth=1" parent="WIyWlLk6GJQsqaUBKTNV-1" vertex="1">
          <mxGeometry x="-440" y="1920" width="190" height="140" as="geometry" />
        </mxCell>
        <mxCell id="89" value="Installation" style="shape=table;startSize=40;container=1;collapsible=0;childLayout=tableLayout;strokeColor=default;fontSize=16;" parent="WIyWlLk6GJQsqaUBKTNV-1" vertex="1">
          <mxGeometry x="-680" y="740" width="573" height="186" as="geometry" />
        </mxCell>
        <mxCell id="90" value="" style="shape=tableRow;horizontal=0;startSize=0;swimlaneHead=0;swimlaneBody=0;strokeColor=inherit;top=0;left=0;bottom=0;right=0;collapsible=0;dropTarget=0;fillColor=none;points=[[0,0.5],[1,0.5]];portConstraint=eastwest;fontSize=16;" parent="89" vertex="1">
          <mxGeometry y="40" width="573" height="37" as="geometry" />
        </mxCell>
        <mxCell id="91" value="Package" style="shape=partialRectangle;html=1;whiteSpace=wrap;connectable=0;strokeColor=inherit;overflow=hidden;fillColor=none;top=0;left=0;bottom=0;right=0;pointerEvents=1;fontSize=16;" parent="90" vertex="1">
          <mxGeometry width="143" height="37" as="geometry">
            <mxRectangle width="143" height="37" as="alternateBounds" />
          </mxGeometry>
        </mxCell>
        <mxCell id="92" value="CLI Command" style="shape=partialRectangle;html=1;whiteSpace=wrap;connectable=0;strokeColor=inherit;overflow=hidden;fillColor=none;top=0;left=0;bottom=0;right=0;pointerEvents=1;fontSize=16;" parent="90" vertex="1">
          <mxGeometry x="143" width="144" height="37" as="geometry">
            <mxRectangle width="144" height="37" as="alternateBounds" />
          </mxGeometry>
        </mxCell>
        <mxCell id="93" value="Description" style="shape=partialRectangle;html=1;whiteSpace=wrap;connectable=0;strokeColor=inherit;overflow=hidden;fillColor=none;top=0;left=0;bottom=0;right=0;pointerEvents=1;fontSize=16;" parent="90" vertex="1">
          <mxGeometry x="287" width="103" height="37" as="geometry">
            <mxRectangle width="103" height="37" as="alternateBounds" />
          </mxGeometry>
        </mxCell>
        <mxCell id="94" style="shape=partialRectangle;html=1;whiteSpace=wrap;connectable=0;strokeColor=inherit;overflow=hidden;fillColor=none;top=0;left=0;bottom=0;right=0;pointerEvents=1;fontSize=16;" parent="90" vertex="1">
          <mxGeometry x="390" width="183" height="37" as="geometry">
            <mxRectangle width="183" height="37" as="alternateBounds" />
          </mxGeometry>
        </mxCell>
        <mxCell id="95" value="" style="shape=tableRow;horizontal=0;startSize=0;swimlaneHead=0;swimlaneBody=0;strokeColor=inherit;top=0;left=0;bottom=0;right=0;collapsible=0;dropTarget=0;fillColor=none;points=[[0,0.5],[1,0.5]];portConstraint=eastwest;fontSize=16;" parent="89" vertex="1">
          <mxGeometry y="77" width="573" height="36" as="geometry" />
        </mxCell>
        <mxCell id="96" value="" style="shape=partialRectangle;html=1;whiteSpace=wrap;connectable=0;strokeColor=inherit;overflow=hidden;fillColor=none;top=0;left=0;bottom=0;right=0;pointerEvents=1;fontSize=16;" parent="95" vertex="1">
          <mxGeometry width="143" height="36" as="geometry">
            <mxRectangle width="143" height="36" as="alternateBounds" />
          </mxGeometry>
        </mxCell>
        <mxCell id="97" value="" style="shape=partialRectangle;html=1;whiteSpace=wrap;connectable=0;strokeColor=inherit;overflow=hidden;fillColor=none;top=0;left=0;bottom=0;right=0;pointerEvents=1;fontSize=16;" parent="95" vertex="1">
          <mxGeometry x="143" width="144" height="36" as="geometry">
            <mxRectangle width="144" height="36" as="alternateBounds" />
          </mxGeometry>
        </mxCell>
        <mxCell id="98" value="" style="shape=partialRectangle;html=1;whiteSpace=wrap;connectable=0;strokeColor=inherit;overflow=hidden;fillColor=none;top=0;left=0;bottom=0;right=0;pointerEvents=1;fontSize=16;" parent="95" vertex="1">
          <mxGeometry x="287" width="103" height="36" as="geometry">
            <mxRectangle width="103" height="36" as="alternateBounds" />
          </mxGeometry>
        </mxCell>
        <mxCell id="99" style="shape=partialRectangle;html=1;whiteSpace=wrap;connectable=0;strokeColor=inherit;overflow=hidden;fillColor=none;top=0;left=0;bottom=0;right=0;pointerEvents=1;fontSize=16;" parent="95" vertex="1">
          <mxGeometry x="390" width="183" height="36" as="geometry">
            <mxRectangle width="183" height="36" as="alternateBounds" />
          </mxGeometry>
        </mxCell>
        <mxCell id="100" style="shape=tableRow;horizontal=0;startSize=0;swimlaneHead=0;swimlaneBody=0;strokeColor=inherit;top=0;left=0;bottom=0;right=0;collapsible=0;dropTarget=0;fillColor=none;points=[[0,0.5],[1,0.5]];portConstraint=eastwest;fontSize=16;" parent="89" vertex="1">
          <mxGeometry y="113" width="573" height="36" as="geometry" />
        </mxCell>
        <mxCell id="101" style="shape=partialRectangle;html=1;whiteSpace=wrap;connectable=0;strokeColor=inherit;overflow=hidden;fillColor=none;top=0;left=0;bottom=0;right=0;pointerEvents=1;fontSize=16;" parent="100" vertex="1">
          <mxGeometry width="143" height="36" as="geometry">
            <mxRectangle width="143" height="36" as="alternateBounds" />
          </mxGeometry>
        </mxCell>
        <mxCell id="102" style="shape=partialRectangle;html=1;whiteSpace=wrap;connectable=0;strokeColor=inherit;overflow=hidden;fillColor=none;top=0;left=0;bottom=0;right=0;pointerEvents=1;fontSize=16;" parent="100" vertex="1">
          <mxGeometry x="143" width="144" height="36" as="geometry">
            <mxRectangle width="144" height="36" as="alternateBounds" />
          </mxGeometry>
        </mxCell>
        <mxCell id="103" style="shape=partialRectangle;html=1;whiteSpace=wrap;connectable=0;strokeColor=inherit;overflow=hidden;fillColor=none;top=0;left=0;bottom=0;right=0;pointerEvents=1;fontSize=16;" parent="100" vertex="1">
          <mxGeometry x="287" width="103" height="36" as="geometry">
            <mxRectangle width="103" height="36" as="alternateBounds" />
          </mxGeometry>
        </mxCell>
        <mxCell id="104" style="shape=partialRectangle;html=1;whiteSpace=wrap;connectable=0;strokeColor=inherit;overflow=hidden;fillColor=none;top=0;left=0;bottom=0;right=0;pointerEvents=1;fontSize=16;" parent="100" vertex="1">
          <mxGeometry x="390" width="183" height="36" as="geometry">
            <mxRectangle width="183" height="36" as="alternateBounds" />
          </mxGeometry>
        </mxCell>
        <mxCell id="105" value="" style="shape=tableRow;horizontal=0;startSize=0;swimlaneHead=0;swimlaneBody=0;strokeColor=inherit;top=0;left=0;bottom=0;right=0;collapsible=0;dropTarget=0;fillColor=none;points=[[0,0.5],[1,0.5]];portConstraint=eastwest;fontSize=16;" parent="89" vertex="1">
          <mxGeometry y="149" width="573" height="37" as="geometry" />
        </mxCell>
        <mxCell id="106" value="" style="shape=partialRectangle;html=1;whiteSpace=wrap;connectable=0;strokeColor=inherit;overflow=hidden;fillColor=none;top=0;left=0;bottom=0;right=0;pointerEvents=1;fontSize=16;" parent="105" vertex="1">
          <mxGeometry width="143" height="37" as="geometry">
            <mxRectangle width="143" height="37" as="alternateBounds" />
          </mxGeometry>
        </mxCell>
        <mxCell id="107" value="" style="shape=partialRectangle;html=1;whiteSpace=wrap;connectable=0;strokeColor=inherit;overflow=hidden;fillColor=none;top=0;left=0;bottom=0;right=0;pointerEvents=1;fontSize=16;" parent="105" vertex="1">
          <mxGeometry x="143" width="144" height="37" as="geometry">
            <mxRectangle width="144" height="37" as="alternateBounds" />
          </mxGeometry>
        </mxCell>
        <mxCell id="108" value="" style="shape=partialRectangle;html=1;whiteSpace=wrap;connectable=0;strokeColor=inherit;overflow=hidden;fillColor=none;top=0;left=0;bottom=0;right=0;pointerEvents=1;fontSize=16;" parent="105" vertex="1">
          <mxGeometry x="287" width="103" height="37" as="geometry">
            <mxRectangle width="103" height="37" as="alternateBounds" />
          </mxGeometry>
        </mxCell>
        <mxCell id="109" style="shape=partialRectangle;html=1;whiteSpace=wrap;connectable=0;strokeColor=inherit;overflow=hidden;fillColor=none;top=0;left=0;bottom=0;right=0;pointerEvents=1;fontSize=16;" parent="105" vertex="1">
          <mxGeometry x="390" width="183" height="37" as="geometry">
            <mxRectangle width="183" height="37" as="alternateBounds" />
          </mxGeometry>
        </mxCell>
        <mxCell id="110" value="" style="shape=process;whiteSpace=wrap;html=1;backgroundOutline=1;" parent="WIyWlLk6GJQsqaUBKTNV-1" vertex="1">
          <mxGeometry x="-282" y="1770" width="120" height="60" as="geometry" />
        </mxCell>
        <mxCell id="111" value="Table" style="shape=table;startSize=30;container=1;collapsible=0;childLayout=tableLayout;fixedRows=1;rowLines=0;fontStyle=0;strokeColor=default;fontSize=16;" parent="WIyWlLk6GJQsqaUBKTNV-1" vertex="1">
          <mxGeometry x="-530" y="1740" width="180" height="120" as="geometry" />
        </mxCell>
        <mxCell id="112" value="" style="shape=tableRow;horizontal=0;startSize=0;swimlaneHead=0;swimlaneBody=0;top=0;left=0;bottom=0;right=0;collapsible=0;dropTarget=0;fillColor=none;points=[[0,0.5],[1,0.5]];portConstraint=eastwest;strokeColor=inherit;fontSize=16;" parent="111" vertex="1">
          <mxGeometry y="30" width="180" height="30" as="geometry" />
        </mxCell>
        <mxCell id="113" value="1" style="shape=partialRectangle;html=1;whiteSpace=wrap;connectable=0;fillColor=none;top=0;left=0;bottom=0;right=0;overflow=hidden;pointerEvents=1;strokeColor=inherit;fontSize=16;" parent="112" vertex="1">
          <mxGeometry width="40" height="30" as="geometry">
            <mxRectangle width="40" height="30" as="alternateBounds" />
          </mxGeometry>
        </mxCell>
        <mxCell id="114" value="Value 1" style="shape=partialRectangle;html=1;whiteSpace=wrap;connectable=0;fillColor=none;top=0;left=0;bottom=0;right=0;align=left;spacingLeft=6;overflow=hidden;strokeColor=inherit;fontSize=16;" parent="112" vertex="1">
          <mxGeometry x="40" width="140" height="30" as="geometry">
            <mxRectangle width="140" height="30" as="alternateBounds" />
          </mxGeometry>
        </mxCell>
        <mxCell id="115" value="" style="shape=tableRow;horizontal=0;startSize=0;swimlaneHead=0;swimlaneBody=0;top=0;left=0;bottom=0;right=0;collapsible=0;dropTarget=0;fillColor=none;points=[[0,0.5],[1,0.5]];portConstraint=eastwest;strokeColor=inherit;fontSize=16;" parent="111" vertex="1">
          <mxGeometry y="60" width="180" height="30" as="geometry" />
        </mxCell>
        <mxCell id="116" value="2" style="shape=partialRectangle;html=1;whiteSpace=wrap;connectable=0;fillColor=none;top=0;left=0;bottom=0;right=0;overflow=hidden;strokeColor=inherit;fontSize=16;" parent="115" vertex="1">
          <mxGeometry width="40" height="30" as="geometry">
            <mxRectangle width="40" height="30" as="alternateBounds" />
          </mxGeometry>
        </mxCell>
        <mxCell id="117" value="Value 2" style="shape=partialRectangle;html=1;whiteSpace=wrap;connectable=0;fillColor=none;top=0;left=0;bottom=0;right=0;align=left;spacingLeft=6;overflow=hidden;strokeColor=inherit;fontSize=16;" parent="115" vertex="1">
          <mxGeometry x="40" width="140" height="30" as="geometry">
            <mxRectangle width="140" height="30" as="alternateBounds" />
          </mxGeometry>
        </mxCell>
        <mxCell id="118" value="" style="shape=tableRow;horizontal=0;startSize=0;swimlaneHead=0;swimlaneBody=0;top=0;left=0;bottom=0;right=0;collapsible=0;dropTarget=0;fillColor=none;points=[[0,0.5],[1,0.5]];portConstraint=eastwest;strokeColor=inherit;fontSize=16;" parent="111" vertex="1">
          <mxGeometry y="90" width="180" height="30" as="geometry" />
        </mxCell>
        <mxCell id="119" value="3" style="shape=partialRectangle;html=1;whiteSpace=wrap;connectable=0;fillColor=none;top=0;left=0;bottom=0;right=0;overflow=hidden;strokeColor=inherit;fontSize=16;" parent="118" vertex="1">
          <mxGeometry width="40" height="30" as="geometry">
            <mxRectangle width="40" height="30" as="alternateBounds" />
          </mxGeometry>
        </mxCell>
        <mxCell id="120" value="Value 3" style="shape=partialRectangle;html=1;whiteSpace=wrap;connectable=0;fillColor=none;top=0;left=0;bottom=0;right=0;align=left;spacingLeft=6;overflow=hidden;strokeColor=inherit;fontSize=16;" parent="118" vertex="1">
          <mxGeometry x="40" width="140" height="30" as="geometry">
            <mxRectangle width="140" height="30" as="alternateBounds" />
          </mxGeometry>
        </mxCell>
        <mxCell id="121" value="Classname" style="swimlane;fontStyle=0;childLayout=stackLayout;horizontal=1;startSize=26;fillColor=none;horizontalStack=0;resizeParent=1;resizeParentMax=0;resizeLast=0;collapsible=1;marginBottom=0;whiteSpace=wrap;html=1;" parent="WIyWlLk6GJQsqaUBKTNV-1" vertex="1">
          <mxGeometry x="-720" y="1920" width="140" height="104" as="geometry" />
        </mxCell>
        <mxCell id="122" value="+ field: type" style="text;strokeColor=none;fillColor=none;align=left;verticalAlign=top;spacingLeft=4;spacingRight=4;overflow=hidden;rotatable=0;points=[[0,0.5],[1,0.5]];portConstraint=eastwest;whiteSpace=wrap;html=1;" parent="121" vertex="1">
          <mxGeometry y="26" width="140" height="26" as="geometry" />
        </mxCell>
        <mxCell id="123" value="+ field: type" style="text;strokeColor=none;fillColor=none;align=left;verticalAlign=top;spacingLeft=4;spacingRight=4;overflow=hidden;rotatable=0;points=[[0,0.5],[1,0.5]];portConstraint=eastwest;whiteSpace=wrap;html=1;" parent="121" vertex="1">
          <mxGeometry y="52" width="140" height="26" as="geometry" />
        </mxCell>
        <mxCell id="124" value="+ field: type" style="text;strokeColor=none;fillColor=none;align=left;verticalAlign=top;spacingLeft=4;spacingRight=4;overflow=hidden;rotatable=0;points=[[0,0.5],[1,0.5]];portConstraint=eastwest;whiteSpace=wrap;html=1;" parent="121" vertex="1">
          <mxGeometry y="78" width="140" height="26" as="geometry" />
        </mxCell>
        <mxCell id="125" value="&lt;p style=&quot;margin:0px;margin-top:4px;text-align:center;text-decoration:underline;&quot;&gt;&lt;b&gt;Object:Type&lt;/b&gt;&lt;/p&gt;&lt;hr/&gt;&lt;p style=&quot;margin:0px;margin-left:8px;&quot;&gt;field1 = value1&lt;br/&gt;field2 = value2&lt;br&gt;field3 = value3&lt;/p&gt;" style="verticalAlign=top;align=left;overflow=fill;fontSize=12;fontFamily=Helvetica;html=1;whiteSpace=wrap;" parent="WIyWlLk6GJQsqaUBKTNV-1" vertex="1">
          <mxGeometry x="-210" y="1920" width="160" height="90" as="geometry" />
        </mxCell>
        <mxCell id="127" value="&lt;h1&gt;rViz&lt;/h1&gt;&lt;div&gt;fdsafdsa&lt;/div&gt;" style="text;html=1;spacing=5;spacingTop=-20;whiteSpace=wrap;overflow=hidden;rounded=0;" parent="WIyWlLk6GJQsqaUBKTNV-1" vertex="1">
          <mxGeometry x="-590" y="4420" width="465" height="120" as="geometry" />
        </mxCell>
        <mxCell id="129" value="&lt;h1&gt;ROS2 Control for a real robot&lt;/h1&gt;&lt;p&gt;Lorem ipsum dolor sit amet, consectetur adipisicing elit, sed do eiusmod tempor incididunt ut labore et dolore magna aliqua.&lt;/p&gt;" style="text;html=1;spacing=5;spacingTop=-20;whiteSpace=wrap;overflow=hidden;rounded=0;" parent="WIyWlLk6GJQsqaUBKTNV-1" vertex="1">
          <mxGeometry x="184" y="1250" width="530" height="120" as="geometry" />
        </mxCell>
        <mxCell id="_1_fJcAhwy_DcltVvV8K-129" value="" style="shape=flexArrow;endArrow=classic;html=1;rounded=0;" parent="WIyWlLk6GJQsqaUBKTNV-1" edge="1">
          <mxGeometry width="50" height="50" relative="1" as="geometry">
            <mxPoint x="680" y="220" as="sourcePoint" />
            <mxPoint x="940" y="220" as="targetPoint" />
          </mxGeometry>
        </mxCell>
        <mxCell id="_1_fJcAhwy_DcltVvV8K-136" value="" style="edgeStyle=orthogonalEdgeStyle;rounded=0;orthogonalLoop=1;jettySize=auto;html=1;" parent="WIyWlLk6GJQsqaUBKTNV-1" source="_1_fJcAhwy_DcltVvV8K-131" target="_1_fJcAhwy_DcltVvV8K-135" edge="1">
          <mxGeometry relative="1" as="geometry" />
        </mxCell>
        <mxCell id="_1_fJcAhwy_DcltVvV8K-131" value="Load&lt;br&gt;gazebo_ros2_control" style="rounded=1;whiteSpace=wrap;html=1;" parent="WIyWlLk6GJQsqaUBKTNV-1" vertex="1">
          <mxGeometry x="940" y="190" width="120" height="60" as="geometry" />
        </mxCell>
        <mxCell id="_1_fJcAhwy_DcltVvV8K-140" value="" style="edgeStyle=orthogonalEdgeStyle;rounded=0;orthogonalLoop=1;jettySize=auto;html=1;" parent="WIyWlLk6GJQsqaUBKTNV-1" source="_1_fJcAhwy_DcltVvV8K-135" target="_1_fJcAhwy_DcltVvV8K-139" edge="1">
          <mxGeometry relative="1" as="geometry" />
        </mxCell>
        <mxCell id="_1_fJcAhwy_DcltVvV8K-135" value="Start Gazzebo (no robot loaded yet)" style="whiteSpace=wrap;html=1;rounded=1;" parent="WIyWlLk6GJQsqaUBKTNV-1" vertex="1">
          <mxGeometry x="1140" y="190" width="120" height="60" as="geometry" />
        </mxCell>
        <mxCell id="_1_fJcAhwy_DcltVvV8K-142" value="" style="edgeStyle=orthogonalEdgeStyle;rounded=0;orthogonalLoop=1;jettySize=auto;html=1;" parent="WIyWlLk6GJQsqaUBKTNV-1" source="_1_fJcAhwy_DcltVvV8K-139" target="_1_fJcAhwy_DcltVvV8K-141" edge="1">
          <mxGeometry relative="1" as="geometry" />
        </mxCell>
        <mxCell id="_1_fJcAhwy_DcltVvV8K-139" value="Wait for gazebo to be loaded and then spawn robot" style="whiteSpace=wrap;html=1;rounded=1;" parent="WIyWlLk6GJQsqaUBKTNV-1" vertex="1">
          <mxGeometry x="1340" y="190" width="120" height="60" as="geometry" />
        </mxCell>
        <mxCell id="_1_fJcAhwy_DcltVvV8K-144" value="" style="edgeStyle=orthogonalEdgeStyle;rounded=0;orthogonalLoop=1;jettySize=auto;html=1;" parent="WIyWlLk6GJQsqaUBKTNV-1" source="_1_fJcAhwy_DcltVvV8K-141" target="_1_fJcAhwy_DcltVvV8K-143" edge="1">
          <mxGeometry relative="1" as="geometry" />
        </mxCell>
        <mxCell id="_1_fJcAhwy_DcltVvV8K-141" value="gazebo_ros2_control is loaded but there are no controllers" style="whiteSpace=wrap;html=1;rounded=1;" parent="WIyWlLk6GJQsqaUBKTNV-1" vertex="1">
          <mxGeometry x="1340" y="330" width="120" height="60" as="geometry" />
        </mxCell>
        <mxCell id="_1_fJcAhwy_DcltVvV8K-146" value="" style="edgeStyle=orthogonalEdgeStyle;rounded=0;orthogonalLoop=1;jettySize=auto;html=1;" parent="WIyWlLk6GJQsqaUBKTNV-1" source="_1_fJcAhwy_DcltVvV8K-143" target="_1_fJcAhwy_DcltVvV8K-145" edge="1">
          <mxGeometry relative="1" as="geometry" />
        </mxCell>
        <mxCell id="_1_fJcAhwy_DcltVvV8K-143" value="/joint_states is available but there is nothing in it." style="whiteSpace=wrap;html=1;rounded=1;" parent="WIyWlLk6GJQsqaUBKTNV-1" vertex="1">
          <mxGeometry x="1140" y="330" width="120" height="60" as="geometry" />
        </mxCell>
        <mxCell id="_1_fJcAhwy_DcltVvV8K-145" value="Load" style="whiteSpace=wrap;html=1;rounded=1;" parent="WIyWlLk6GJQsqaUBKTNV-1" vertex="1">
          <mxGeometry x="940" y="330" width="120" height="60" as="geometry" />
        </mxCell>
        <mxCell id="DOZ8shbyCuUHxcddwx-E-135" value="" style="edgeStyle=orthogonalEdgeStyle;rounded=0;orthogonalLoop=1;jettySize=auto;html=1;" parent="WIyWlLk6GJQsqaUBKTNV-1" source="DOZ8shbyCuUHxcddwx-E-133" target="DOZ8shbyCuUHxcddwx-E-134" edge="1">
          <mxGeometry relative="1" as="geometry" />
        </mxCell>
        <mxCell id="DOZ8shbyCuUHxcddwx-E-133" value="&lt;div style=&quot;&quot;&gt;&lt;span style=&quot;background-color: initial;&quot;&gt;To Controllers&lt;/span&gt;&lt;/div&gt;&lt;div style=&quot;&quot;&gt;&lt;span style=&quot;background-color: initial;&quot;&gt;(diff_drive_controller/DIFFDriveController)&lt;/span&gt;&lt;/div&gt;" style="rounded=1;whiteSpace=wrap;html=1;align=center;rotation=90;" parent="WIyWlLk6GJQsqaUBKTNV-1" vertex="1">
          <mxGeometry x="140" y="779" width="364" height="142" as="geometry" />
        </mxCell>
        <mxCell id="DOZ8shbyCuUHxcddwx-E-143" style="edgeStyle=orthogonalEdgeStyle;rounded=0;orthogonalLoop=1;jettySize=auto;html=1;exitX=1;exitY=0.25;exitDx=0;exitDy=0;entryX=0;entryY=0.5;entryDx=0;entryDy=0;" parent="WIyWlLk6GJQsqaUBKTNV-1" source="DOZ8shbyCuUHxcddwx-E-134" target="DOZ8shbyCuUHxcddwx-E-138" edge="1">
          <mxGeometry relative="1" as="geometry" />
        </mxCell>
        <mxCell id="DOZ8shbyCuUHxcddwx-E-144" style="edgeStyle=orthogonalEdgeStyle;rounded=0;orthogonalLoop=1;jettySize=auto;html=1;exitX=1;exitY=0.5;exitDx=0;exitDy=0;entryX=0;entryY=0.5;entryDx=0;entryDy=0;" parent="WIyWlLk6GJQsqaUBKTNV-1" source="DOZ8shbyCuUHxcddwx-E-134" target="DOZ8shbyCuUHxcddwx-E-141" edge="1">
          <mxGeometry relative="1" as="geometry" />
        </mxCell>
        <mxCell id="DOZ8shbyCuUHxcddwx-E-145" style="edgeStyle=orthogonalEdgeStyle;rounded=0;orthogonalLoop=1;jettySize=auto;html=1;exitX=1;exitY=0.75;exitDx=0;exitDy=0;entryX=0;entryY=0.5;entryDx=0;entryDy=0;" parent="WIyWlLk6GJQsqaUBKTNV-1" source="DOZ8shbyCuUHxcddwx-E-134" target="DOZ8shbyCuUHxcddwx-E-142" edge="1">
          <mxGeometry relative="1" as="geometry" />
        </mxCell>
        <mxCell id="DOZ8shbyCuUHxcddwx-E-134" value="Resource Manager" style="rounded=1;whiteSpace=wrap;html=1;" parent="WIyWlLk6GJQsqaUBKTNV-1" vertex="1">
          <mxGeometry x="439" y="690" width="120" height="320" as="geometry" />
        </mxCell>
        <mxCell id="DOZ8shbyCuUHxcddwx-E-136" value="URDF" style="whiteSpace=wrap;html=1;shape=mxgraph.basic.document" parent="WIyWlLk6GJQsqaUBKTNV-1" vertex="1">
          <mxGeometry x="660" y="600" width="100" height="100" as="geometry" />
        </mxCell>
        <mxCell id="DOZ8shbyCuUHxcddwx-E-137" value="" style="endArrow=classic;html=1;rounded=0;entryX=0.5;entryY=0;entryDx=0;entryDy=0;strokeWidth=4;" parent="WIyWlLk6GJQsqaUBKTNV-1" source="DOZ8shbyCuUHxcddwx-E-136" target="DOZ8shbyCuUHxcddwx-E-134" edge="1">
          <mxGeometry width="50" height="50" relative="1" as="geometry">
            <mxPoint x="610" y="630" as="sourcePoint" />
            <mxPoint x="529" y="670" as="targetPoint" />
          </mxGeometry>
        </mxCell>
        <mxCell id="DOZ8shbyCuUHxcddwx-E-138" value="Hardware interface (Wheel)" style="whiteSpace=wrap;html=1;rounded=1;" parent="WIyWlLk6GJQsqaUBKTNV-1" vertex="1">
          <mxGeometry x="630" y="740" width="120" height="60" as="geometry" />
        </mxCell>
        <mxCell id="DOZ8shbyCuUHxcddwx-E-141" value="Hardware Interface (diffdrive_arduino)" style="whiteSpace=wrap;html=1;rounded=1;" parent="WIyWlLk6GJQsqaUBKTNV-1" vertex="1">
          <mxGeometry x="630" y="820" width="120" height="60" as="geometry" />
        </mxCell>
        <mxCell id="DOZ8shbyCuUHxcddwx-E-142" value="Hardware Interface (Velocity)&lt;br&gt;(State)" style="whiteSpace=wrap;html=1;rounded=1;" parent="WIyWlLk6GJQsqaUBKTNV-1" vertex="1">
          <mxGeometry x="630" y="900" width="120" height="60" as="geometry" />
        </mxCell>
        <mxCell id="DOZ8shbyCuUHxcddwx-E-146" value="Can RQT have a ros2 controller???" style="rounded=1;whiteSpace=wrap;html=1;" parent="WIyWlLk6GJQsqaUBKTNV-1" vertex="1">
          <mxGeometry x="-500" y="4922" width="180" height="96" as="geometry" />
        </mxCell>
        <mxCell id="DOZ8shbyCuUHxcddwx-E-147" value="on_activate()" style="rounded=1;whiteSpace=wrap;html=1;flipV=0;flipH=0;verticalAlign=top;" parent="WIyWlLk6GJQsqaUBKTNV-1" vertex="1">
          <mxGeometry x="60" y="470" width="190" height="135" as="geometry" />
        </mxCell>
        <mxCell id="DOZ8shbyCuUHxcddwx-E-150" value="Enable Camera&lt;br&gt;Start ROS Timer" style="rounded=1;whiteSpace=wrap;html=1;" parent="WIyWlLk6GJQsqaUBKTNV-1" vertex="1">
          <mxGeometry x="80" y="515" width="150" height="70" as="geometry" />
        </mxCell>
        <mxCell id="DOZ8shbyCuUHxcddwx-E-151" value="on_configure()" style="rounded=1;whiteSpace=wrap;html=1;flipV=0;flipH=0;verticalAlign=top;" parent="WIyWlLk6GJQsqaUBKTNV-1" vertex="1">
          <mxGeometry x="60" y="265" width="190" height="135" as="geometry" />
        </mxCell>
        <mxCell id="DOZ8shbyCuUHxcddwx-E-152" value="Create ROS2 topic&lt;br&gt;Init HW communication&lt;br&gt;Calibrate Camera" style="rounded=1;whiteSpace=wrap;html=1;" parent="WIyWlLk6GJQsqaUBKTNV-1" vertex="1">
          <mxGeometry x="80" y="310" width="150" height="70" as="geometry" />
        </mxCell>
        <mxCell id="DOZ8shbyCuUHxcddwx-E-161" value="" style="endArrow=classic;html=1;rounded=0;entryX=0.069;entryY=1.014;entryDx=0;entryDy=0;entryPerimeter=0;exitX=0.917;exitY=0.5;exitDx=0;exitDy=0;exitPerimeter=0;" parent="WIyWlLk6GJQsqaUBKTNV-1" source="24" target="DOZ8shbyCuUHxcddwx-E-133" edge="1">
          <mxGeometry width="50" height="50" relative="1" as="geometry">
            <mxPoint x="-410" y="540" as="sourcePoint" />
            <mxPoint x="-360" y="490" as="targetPoint" />
          </mxGeometry>
        </mxCell>
        <mxCell id="DOZ8shbyCuUHxcddwx-E-162" value="" style="endArrow=classic;html=1;rounded=0;" parent="WIyWlLk6GJQsqaUBKTNV-1" source="Kt66wAR78E_RaEtoUN4U-17" target="DOZ8shbyCuUHxcddwx-E-151" edge="1">
          <mxGeometry width="50" height="50" relative="1" as="geometry">
            <mxPoint x="318" y="235" as="sourcePoint" />
            <mxPoint x="268" y="285" as="targetPoint" />
          </mxGeometry>
        </mxCell>
        <mxCell id="DOZ8shbyCuUHxcddwx-E-163" value="" style="endArrow=classic;html=1;rounded=0;" parent="WIyWlLk6GJQsqaUBKTNV-1" source="DOZ8shbyCuUHxcddwx-E-151" target="Kt66wAR78E_RaEtoUN4U-18" edge="1">
          <mxGeometry width="50" height="50" relative="1" as="geometry">
            <mxPoint x="309" y="485" as="sourcePoint" />
            <mxPoint x="359" y="435" as="targetPoint" />
          </mxGeometry>
        </mxCell>
        <mxCell id="DOZ8shbyCuUHxcddwx-E-164" value="" style="endArrow=classic;html=1;rounded=0;exitX=0;exitY=0.75;exitDx=0;exitDy=0;" parent="WIyWlLk6GJQsqaUBKTNV-1" source="Kt66wAR78E_RaEtoUN4U-18" target="DOZ8shbyCuUHxcddwx-E-147" edge="1">
          <mxGeometry width="50" height="50" relative="1" as="geometry">
            <mxPoint x="270" y="465" as="sourcePoint" />
            <mxPoint x="320" y="415" as="targetPoint" />
          </mxGeometry>
        </mxCell>
        <mxCell id="DOZ8shbyCuUHxcddwx-E-167" value="control_manager package&lt;br&gt;plugin:&amp;nbsp;" style="rounded=1;whiteSpace=wrap;html=1;verticalAlign=top;" parent="WIyWlLk6GJQsqaUBKTNV-1" vertex="1">
          <mxGeometry x="860" y="690" width="390" height="260" as="geometry" />
        </mxCell>
        <mxCell id="DOZ8shbyCuUHxcddwx-E-168" value="ros2_control_node node&lt;div&gt;&lt;br/&gt;&lt;/div&gt;" style="rounded=1;whiteSpace=wrap;html=1;" parent="WIyWlLk6GJQsqaUBKTNV-1" vertex="1">
          <mxGeometry x="890" y="779" width="140" height="110" as="geometry" />
        </mxCell>
        <mxCell id="DOZ8shbyCuUHxcddwx-E-169" value="gazebo_ros2_control" style="rounded=1;whiteSpace=wrap;html=1;verticalAlign=top;" parent="WIyWlLk6GJQsqaUBKTNV-1" vertex="1">
          <mxGeometry x="1290" y="470" width="220" height="260" as="geometry" />
        </mxCell>
        <mxCell id="DOZ8shbyCuUHxcddwx-E-170" value="ros2_control_node" style="rounded=1;whiteSpace=wrap;html=1;" parent="WIyWlLk6GJQsqaUBKTNV-1" vertex="1">
          <mxGeometry x="1330" y="540" width="140" height="60" as="geometry" />
        </mxCell>
        <mxCell id="DOZ8shbyCuUHxcddwx-E-171" value="Controller Manager" style="rounded=1;whiteSpace=wrap;html=1;" parent="WIyWlLk6GJQsqaUBKTNV-1" vertex="1">
          <mxGeometry x="900" y="839" width="120" height="40" as="geometry" />
        </mxCell>
        <mxCell id="cki8_oQQ6JSt1iZq9x34-129" value="hardware Interface&lt;div&gt;&lt;br/&gt;&lt;/div&gt;" style="rounded=1;whiteSpace=wrap;html=1;" parent="WIyWlLk6GJQsqaUBKTNV-1" vertex="1">
          <mxGeometry x="1060" y="779" width="140" height="110" as="geometry" />
        </mxCell>
        <mxCell id="cki8_oQQ6JSt1iZq9x34-130" value="Controller Manager" style="rounded=1;whiteSpace=wrap;html=1;" parent="WIyWlLk6GJQsqaUBKTNV-1" vertex="1">
          <mxGeometry x="1070" y="839" width="120" height="40" as="geometry" />
        </mxCell>
        <mxCell id="cki8_oQQ6JSt1iZq9x34-131" value="cmd_vel topic" style="shape=parallelogram;perimeter=parallelogramPerimeter;whiteSpace=wrap;html=1;fixedSize=1;" parent="WIyWlLk6GJQsqaUBKTNV-1" vertex="1">
          <mxGeometry x="-465" y="990" width="120" height="60" as="geometry" />
        </mxCell>
        <mxCell id="cki8_oQQ6JSt1iZq9x34-134" value="" style="endArrow=classic;html=1;rounded=0;entryX=0.385;entryY=0.979;entryDx=0;entryDy=0;entryPerimeter=0;" parent="WIyWlLk6GJQsqaUBKTNV-1" source="cki8_oQQ6JSt1iZq9x34-131" target="DOZ8shbyCuUHxcddwx-E-133" edge="1">
          <mxGeometry width="50" height="50" relative="1" as="geometry">
            <mxPoint x="-30" y="730" as="sourcePoint" />
            <mxPoint x="20" y="680" as="targetPoint" />
          </mxGeometry>
        </mxCell>
        <mxCell id="fPOZ1dp4cMhDRdokMYRC-129" value="&lt;h1&gt;ROS2 Control for Gazebo&lt;/h1&gt;&lt;div&gt;&amp;nbsp;This is where we are going to setup how ros2_control talks to gazebo and how gazebo talks to res2_control&lt;/div&gt;&lt;div&gt;&lt;br&gt;&lt;/div&gt;&lt;div&gt;&lt;b&gt;NOTE&lt;/b&gt;&amp;nbsp;gazebo_control and gazebo_ros2_control are two different things&lt;/div&gt;" style="text;html=1;spacing=5;spacingTop=-20;whiteSpace=wrap;overflow=hidden;rounded=0;" parent="WIyWlLk6GJQsqaUBKTNV-1" vertex="1">
          <mxGeometry x="1005" y="1210" width="465" height="120" as="geometry" />
        </mxCell>
        <mxCell id="fdtKl7H0yg4s_9Us0zCq-129" value="&lt;h1&gt;Robot State Publisher&lt;/h1&gt;This package contains the Robot State Publisher, a node and a class to publish the state of a robot to tf2.&lt;br&gt;At startup time, Robot State Publisher is supplied with a kinematic tree model (URDF) of the robot.&lt;br&gt;It then subscribes to the &lt;code&gt;joint_states&lt;/code&gt; topic (of type &lt;code&gt;sensor_msgs/msg/JointState&lt;/code&gt;) to get individual joint states.&lt;br&gt;These joint states are used to update the kinematic tree model, and the resulting 3D poses are then published to tf2.&lt;br&gt;More Info:&amp;nbsp;&lt;a href=&quot;https://github.com/ros/robot_state_publisher&quot;&gt;https://github.com/ros/robot_state_publisher&lt;/a&gt;" style="text;html=1;spacing=5;spacingTop=-20;whiteSpace=wrap;overflow=hidden;rounded=0;" parent="WIyWlLk6GJQsqaUBKTNV-1" vertex="1">
          <mxGeometry x="45" y="2230" width="770" height="140" as="geometry" />
        </mxCell>
        <mxCell id="fdtKl7H0yg4s_9Us0zCq-142" style="edgeStyle=orthogonalEdgeStyle;rounded=0;orthogonalLoop=1;jettySize=auto;html=1;exitX=0.5;exitY=0;exitDx=0;exitDy=0;entryX=0.5;entryY=0;entryDx=0;entryDy=0;" parent="WIyWlLk6GJQsqaUBKTNV-1" source="fdtKl7H0yg4s_9Us0zCq-130" target="fdtKl7H0yg4s_9Us0zCq-134" edge="1">
          <mxGeometry relative="1" as="geometry" />
        </mxCell>
        <mxCell id="fdtKl7H0yg4s_9Us0zCq-143" value="robot_state_publisher subscribes to /joint_states&lt;div&gt;&lt;br/&gt;&lt;/div&gt;" style="edgeLabel;html=1;align=center;verticalAlign=middle;resizable=0;points=[];" parent="fdtKl7H0yg4s_9Us0zCq-142" vertex="1" connectable="0">
          <mxGeometry x="-0.2451" relative="1" as="geometry">
            <mxPoint as="offset" />
          </mxGeometry>
        </mxCell>
        <mxCell id="fdtKl7H0yg4s_9Us0zCq-130" value="/joint_states&lt;br&gt;&lt;code&gt;sensor_msgs/msg/JointState&lt;/code&gt;" style="rounded=1;whiteSpace=wrap;html=1;direction=west;" parent="WIyWlLk6GJQsqaUBKTNV-1" vertex="1">
          <mxGeometry x="174" y="2410" width="205" height="60" as="geometry" />
        </mxCell>
        <mxCell id="fdtKl7H0yg4s_9Us0zCq-131" value="fixed joint" style="rounded=1;whiteSpace=wrap;html=1;" parent="WIyWlLk6GJQsqaUBKTNV-1" vertex="1">
          <mxGeometry x="41.5" y="2710" width="120" height="60" as="geometry" />
        </mxCell>
        <mxCell id="fdtKl7H0yg4s_9Us0zCq-132" value="Load robot from&amp;nbsp;" style="rounded=1;whiteSpace=wrap;html=1;" parent="WIyWlLk6GJQsqaUBKTNV-1" vertex="1">
          <mxGeometry x="-580" y="4580" width="360" height="60" as="geometry" />
        </mxCell>
        <mxCell id="fdtKl7H0yg4s_9Us0zCq-147" style="edgeStyle=orthogonalEdgeStyle;rounded=0;orthogonalLoop=1;jettySize=auto;html=1;exitX=1;exitY=0.5;exitDx=0;exitDy=0;entryX=0.25;entryY=1;entryDx=0;entryDy=0;" parent="WIyWlLk6GJQsqaUBKTNV-1" source="fdtKl7H0yg4s_9Us0zCq-133" target="fdtKl7H0yg4s_9Us0zCq-134" edge="1">
          <mxGeometry relative="1" as="geometry" />
        </mxCell>
        <mxCell id="fdtKl7H0yg4s_9Us0zCq-133" value="moveable joint" style="rounded=1;whiteSpace=wrap;html=1;" parent="WIyWlLk6GJQsqaUBKTNV-1" vertex="1">
          <mxGeometry x="41.5" y="2810" width="120" height="60" as="geometry" />
        </mxCell>
        <mxCell id="fdtKl7H0yg4s_9Us0zCq-148" style="edgeStyle=orthogonalEdgeStyle;rounded=0;orthogonalLoop=1;jettySize=auto;html=1;exitX=0.5;exitY=1;exitDx=0;exitDy=0;entryX=0.5;entryY=0;entryDx=0;entryDy=0;" parent="WIyWlLk6GJQsqaUBKTNV-1" source="fdtKl7H0yg4s_9Us0zCq-134" target="fdtKl7H0yg4s_9Us0zCq-135" edge="1">
          <mxGeometry relative="1" as="geometry" />
        </mxCell>
        <mxCell id="fdtKl7H0yg4s_9Us0zCq-150" value="published once" style="edgeLabel;html=1;align=center;verticalAlign=middle;resizable=0;points=[];" parent="fdtKl7H0yg4s_9Us0zCq-148" vertex="1" connectable="0">
          <mxGeometry x="-0.1868" y="-2" relative="1" as="geometry">
            <mxPoint as="offset" />
          </mxGeometry>
        </mxCell>
        <mxCell id="fdtKl7H0yg4s_9Us0zCq-149" style="edgeStyle=orthogonalEdgeStyle;rounded=0;orthogonalLoop=1;jettySize=auto;html=1;exitX=0.75;exitY=1;exitDx=0;exitDy=0;entryX=0.5;entryY=0;entryDx=0;entryDy=0;" parent="WIyWlLk6GJQsqaUBKTNV-1" source="fdtKl7H0yg4s_9Us0zCq-134" target="fdtKl7H0yg4s_9Us0zCq-137" edge="1">
          <mxGeometry relative="1" as="geometry">
            <mxPoint x="528.5" y="2740.0000000000005" as="targetPoint" />
            <Array as="points">
              <mxPoint x="306.5" y="2680" />
              <mxPoint x="588.5" y="2680" />
            </Array>
          </mxGeometry>
        </mxCell>
        <mxCell id="fdtKl7H0yg4s_9Us0zCq-134" value="robot_state_publisher" style="rounded=1;whiteSpace=wrap;html=1;" parent="WIyWlLk6GJQsqaUBKTNV-1" vertex="1">
          <mxGeometry x="216.5" y="2580" width="120" height="60" as="geometry" />
        </mxCell>
        <mxCell id="fdtKl7H0yg4s_9Us0zCq-135" value="/tf_static" style="whiteSpace=wrap;html=1;rounded=1;" parent="WIyWlLk6GJQsqaUBKTNV-1" vertex="1">
          <mxGeometry x="333.5" y="2780" width="120" height="60" as="geometry" />
        </mxCell>
        <mxCell id="fdtKl7H0yg4s_9Us0zCq-137" value="/tf" style="whiteSpace=wrap;html=1;rounded=1;" parent="WIyWlLk6GJQsqaUBKTNV-1" vertex="1">
          <mxGeometry x="528.5" y="2780" width="120" height="60" as="geometry" />
        </mxCell>
        <mxCell id="fdtKl7H0yg4s_9Us0zCq-140" style="edgeStyle=orthogonalEdgeStyle;rounded=0;orthogonalLoop=1;jettySize=auto;html=1;entryX=0;entryY=0.5;entryDx=0;entryDy=0;exitX=1;exitY=0.5;exitDx=0;exitDy=0;" parent="WIyWlLk6GJQsqaUBKTNV-1" source="fdtKl7H0yg4s_9Us0zCq-141" target="fdtKl7H0yg4s_9Us0zCq-134" edge="1">
          <mxGeometry relative="1" as="geometry">
            <mxPoint x="129.5" y="2610.5" as="sourcePoint" />
          </mxGeometry>
        </mxCell>
        <mxCell id="fdtKl7H0yg4s_9Us0zCq-141" value="kinematic tree model&lt;br&gt;(URDF)" style="shape=ext;double=1;whiteSpace=wrap;html=1;aspect=fixed;" parent="WIyWlLk6GJQsqaUBKTNV-1" vertex="1">
          <mxGeometry x="61.5" y="2570" width="80" height="80" as="geometry" />
        </mxCell>
        <mxCell id="fdtKl7H0yg4s_9Us0zCq-146" style="edgeStyle=orthogonalEdgeStyle;rounded=0;orthogonalLoop=1;jettySize=auto;html=1;exitX=1;exitY=0.5;exitDx=0;exitDy=0;entryX=0.127;entryY=1.02;entryDx=0;entryDy=0;entryPerimeter=0;" parent="WIyWlLk6GJQsqaUBKTNV-1" source="fdtKl7H0yg4s_9Us0zCq-131" target="fdtKl7H0yg4s_9Us0zCq-134" edge="1">
          <mxGeometry relative="1" as="geometry" />
        </mxCell>
        <mxCell id="Pk7snzVkNLMH_WmJ1Nt8-129" value="&lt;h1&gt;&amp;nbsp;Joint State Publisher&lt;/h1&gt;&lt;p&gt;Allows us to view (and control) the current state of each joint.&amp;nbsp; These states are read from the /tf topic (and published if the gui is used to make changes)&lt;/p&gt;" style="text;html=1;spacing=5;spacingTop=-20;whiteSpace=wrap;overflow=hidden;rounded=0;" parent="WIyWlLk6GJQsqaUBKTNV-1" vertex="1">
          <mxGeometry x="-810" y="2240" width="670" height="170" as="geometry" />
        </mxCell>
        <mxCell id="Pk7snzVkNLMH_WmJ1Nt8-132" value="" style="edgeStyle=orthogonalEdgeStyle;rounded=0;orthogonalLoop=1;jettySize=auto;html=1;entryX=0;entryY=0.5;entryDx=0;entryDy=0;" parent="WIyWlLk6GJQsqaUBKTNV-1" source="Pk7snzVkNLMH_WmJ1Nt8-130" target="22" edge="1">
          <mxGeometry relative="1" as="geometry">
            <mxPoint x="-523.5000000000002" y="257.5000000000002" as="targetPoint" />
          </mxGeometry>
        </mxCell>
        <mxCell id="Pk7snzVkNLMH_WmJ1Nt8-130" value="Set parameters&lt;br&gt;-use_sim_time&lt;br&gt;- package_name&lt;br&gt;- Pkg_path&lt;br&gt;- xacro_file&lt;br&gt;- robot_description&lt;div&gt;&lt;br&gt;&lt;/div&gt;" style="rounded=1;whiteSpace=wrap;html=1;" parent="WIyWlLk6GJQsqaUBKTNV-1" vertex="1">
          <mxGeometry x="-743.5" y="200" width="120" height="110" as="geometry" />
        </mxCell>
        <mxCell id="Pk7snzVkNLMH_WmJ1Nt8-139" value="" style="edgeStyle=orthogonalEdgeStyle;rounded=0;orthogonalLoop=1;jettySize=auto;html=1;" parent="WIyWlLk6GJQsqaUBKTNV-1" source="Pk7snzVkNLMH_WmJ1Nt8-133" target="Pk7snzVkNLMH_WmJ1Nt8-138" edge="1">
          <mxGeometry relative="1" as="geometry" />
        </mxCell>
        <mxCell id="Pk7snzVkNLMH_WmJ1Nt8-133" value="Launch joint_state_publisher_gui" style="rounded=0;whiteSpace=wrap;html=1;" parent="WIyWlLk6GJQsqaUBKTNV-1" vertex="1">
          <mxGeometry x="-193.5" y="225" width="150" height="60" as="geometry" />
        </mxCell>
        <mxCell id="Pk7snzVkNLMH_WmJ1Nt8-136" style="edgeStyle=orthogonalEdgeStyle;rounded=0;orthogonalLoop=1;jettySize=auto;html=1;exitX=1;exitY=0.5;exitDx=0;exitDy=0;entryX=0;entryY=0.5;entryDx=0;entryDy=0;" parent="WIyWlLk6GJQsqaUBKTNV-1" source="Pk7snzVkNLMH_WmJ1Nt8-134" target="Pk7snzVkNLMH_WmJ1Nt8-133" edge="1">
          <mxGeometry relative="1" as="geometry" />
        </mxCell>
        <mxCell id="Pk7snzVkNLMH_WmJ1Nt8-134" value="Start topics:&lt;br&gt;/joint_states&lt;br&gt;/robot_description&lt;br&gt;/tf&lt;br&gt;/tf_static" style="shape=parallelogram;perimeter=parallelogramPerimeter;whiteSpace=wrap;html=1;fixedSize=1;" parent="WIyWlLk6GJQsqaUBKTNV-1" vertex="1">
          <mxGeometry x="-378.5" y="212.5" width="160" height="85" as="geometry" />
        </mxCell>
        <mxCell id="Pk7snzVkNLMH_WmJ1Nt8-138" value="Initiaate /clock" style="shape=parallelogram;perimeter=parallelogramPerimeter;whiteSpace=wrap;html=1;fixedSize=1;rounded=0;" parent="WIyWlLk6GJQsqaUBKTNV-1" vertex="1">
          <mxGeometry x="-178.5" y="365" width="120" height="60" as="geometry" />
        </mxCell>
        <mxCell id="Pk7snzVkNLMH_WmJ1Nt8-140" value="Launch&lt;br&gt;Package: controller_manager&lt;br&gt;executable: ros2_control_node" style="rounded=0;whiteSpace=wrap;html=1;" parent="WIyWlLk6GJQsqaUBKTNV-1" vertex="1">
          <mxGeometry x="-433.5" y="365" width="185" height="55" as="geometry" />
        </mxCell>
        <mxCell id="Pk7snzVkNLMH_WmJ1Nt8-141" value="Start Topic: /controller_manager/robot_description" style="shape=parallelogram;perimeter=parallelogramPerimeter;whiteSpace=wrap;html=1;fixedSize=1;rounded=0;" parent="WIyWlLk6GJQsqaUBKTNV-1" vertex="1">
          <mxGeometry x="-468.5" y="452.5" width="255" height="60" as="geometry" />
        </mxCell>
        <mxCell id="Pk7snzVkNLMH_WmJ1Nt8-142" value="&lt;h1&gt;URDF&lt;/h1&gt;&lt;p&gt;This is the basic structure of the robot.&amp;nbsp; This includes some ros2_control plugin definitions&lt;/p&gt;" style="text;html=1;spacing=5;spacingTop=-20;whiteSpace=wrap;overflow=hidden;rounded=0;" parent="WIyWlLk6GJQsqaUBKTNV-1" vertex="1">
          <mxGeometry x="1050" y="2230" width="330" height="120" as="geometry" />
        </mxCell>
        <mxCell id="Pk7snzVkNLMH_WmJ1Nt8-145" value="" style="edgeStyle=orthogonalEdgeStyle;rounded=0;orthogonalLoop=1;jettySize=auto;html=1;entryX=0.5;entryY=0;entryDx=0;entryDy=0;" parent="WIyWlLk6GJQsqaUBKTNV-1" source="Pk7snzVkNLMH_WmJ1Nt8-143" target="Pk7snzVkNLMH_WmJ1Nt8-146" edge="1">
          <mxGeometry relative="1" as="geometry">
            <mxPoint x="1180" y="2520" as="targetPoint" />
          </mxGeometry>
        </mxCell>
        <mxCell id="Pk7snzVkNLMH_WmJ1Nt8-143" value="robot.urdf.xacro" style="rounded=1;whiteSpace=wrap;html=1;" parent="WIyWlLk6GJQsqaUBKTNV-1" vertex="1">
          <mxGeometry x="1090" y="2350" width="180" height="60" as="geometry" />
        </mxCell>
        <mxCell id="Pk7snzVkNLMH_WmJ1Nt8-146" value="Gazebo or Physical Robot" style="shape=parallelogram;perimeter=parallelogramPerimeter;whiteSpace=wrap;html=1;fixedSize=1;" parent="WIyWlLk6GJQsqaUBKTNV-1" vertex="1">
          <mxGeometry x="1080" y="2530" width="200" height="60" as="geometry" />
        </mxCell>
        <mxCell id="Pk7snzVkNLMH_WmJ1Nt8-147" value="Load Plugin&lt;br&gt;use_ros2_control = True" style="rounded=1;whiteSpace=wrap;html=1;" parent="WIyWlLk6GJQsqaUBKTNV-1" vertex="1">
          <mxGeometry x="910" y="2620" width="160" height="90" as="geometry" />
        </mxCell>
        <mxCell id="Pk7snzVkNLMH_WmJ1Nt8-148" value="" style="rounded=1;whiteSpace=wrap;html=1;" parent="WIyWlLk6GJQsqaUBKTNV-1" vertex="1">
          <mxGeometry x="1320" y="2620" width="120" height="60" as="geometry" />
        </mxCell>
        <mxCell id="90UkCIJJJHxpXgxv-O5S-129" value="&lt;h1&gt;ros2_control and joint_state_broadcaster&lt;/h1&gt;&lt;div&gt;This is how ros2_control connects to joint_state_publisher.&amp;nbsp; Remember that joint_state_broadcaster is what &lt;i&gt;broadcasts&lt;/i&gt;&amp;nbsp;to the /joint_states topic&lt;/div&gt;" style="text;html=1;spacing=5;spacingTop=-20;whiteSpace=wrap;overflow=hidden;rounded=0;" parent="WIyWlLk6GJQsqaUBKTNV-1" vertex="1">
          <mxGeometry x="167.5" y="3360" width="465" height="120" as="geometry" />
        </mxCell>
        <mxCell id="90UkCIJJJHxpXgxv-O5S-130" value="&lt;h1&gt;Nomenclature:&lt;br&gt;&lt;/h1&gt;&lt;p&gt;This is a list of definitions and terms as ros2 defines them.&amp;nbsp; It can be confusing so reference here regularly to ensure you are thinking in the right context&lt;/p&gt;" style="text;html=1;spacing=5;spacingTop=-20;whiteSpace=wrap;overflow=hidden;rounded=0;" parent="WIyWlLk6GJQsqaUBKTNV-1" vertex="1">
          <mxGeometry x="980" y="3330" width="570" height="120" as="geometry" />
        </mxCell>
        <mxCell id="90UkCIJJJHxpXgxv-O5S-131" value="&lt;div&gt;- Broadcasters: Are controllers that don&#39;t control anything.&lt;/div&gt;&lt;div&gt;&lt;span style=&quot;background-color: initial;&quot;&gt;&amp;nbsp; &amp;nbsp;Ex. joint_state_broadcaster only reports all the joint states to the /joint_states topic&lt;/span&gt;&lt;/div&gt;&lt;div&gt;&lt;span style=&quot;background-color: initial;&quot;&gt;&lt;br&gt;&lt;/span&gt;&lt;/div&gt;&lt;div&gt;&lt;span style=&quot;&quot;&gt;&lt;/span&gt;&lt;/div&gt;&lt;div&gt;- Controllers: Actually send and receive commands&lt;/div&gt;&lt;div&gt;&lt;br&gt;&lt;/div&gt;&lt;div&gt;- Publishers: are the same things as broadcasters.&amp;nbsp; Just a different name.&lt;/div&gt;&lt;div&gt;&lt;br&gt;&lt;/div&gt;&lt;div&gt;&lt;br&gt;&lt;/div&gt;&lt;div&gt;- joint_state_controller&lt;/div&gt;&lt;div&gt;- joint_state_broadcaster&lt;/div&gt;&lt;div&gt;- robot_state_publisher&lt;/div&gt;&lt;div&gt;&lt;br&gt;&lt;/div&gt;" style="text;html=1;align=left;verticalAlign=top;whiteSpace=wrap;rounded=0;" parent="WIyWlLk6GJQsqaUBKTNV-1" vertex="1">
          <mxGeometry x="980" y="3550" width="570" height="450" as="geometry" />
        </mxCell>
      </root>
    </mxGraphModel>
  </diagram>
</mxfile>
